<?xml version="1.0" encoding="utf-8"?>
<!-- Generator: Adobe Illustrator 27.4.1, SVG Export Plug-In . SVG Version: 6.00 Build 0)  -->
<svg version="1.1" xmlns="http://www.w3.org/2000/svg" xmlns:xlink="http://www.w3.org/1999/xlink" x="0px" y="0px"
	 viewBox="0 0 2160 1228" style="enable-background:new 0 0 2160 1228;" xml:space="preserve">
<style type="text/css">
	.st0{display:none;}
	.st1{display:inline;fill:#D5E3F2;}
	.st2{display:inline;}
	.st3{fill:none;}
	.st4{fill:#FFFFFF;}
	.st5{fill:#003399;}
	.st6{font-family:'PatrickHand-Regular';}
	.st7{font-size:278.0766px;}
	.st8{letter-spacing:-2.5;}
	.st9{fill:#2254B2;stroke:#2254B2;stroke-width:2;stroke-miterlimit:10;}
</style>
<g id="Layer_2" class="st0">
	<rect x="-250.1" y="-173.7" class="st1" width="2607.3" height="1416.1"/>
</g>
<g id="svg2" xmlns:cc="http://creativecommons.org/ns#" xmlns:svg="http://www.w3.org/2000/svg" xmlns:rdf="http://www.w3.org/1999/02/22-rdf-syntax-ns#" xmlns:dc="http://purl.org/dc/elements/1.1/" xmlns:inkscape="http://www.inkscape.org/namespaces/inkscape" xmlns:sodipodi="http://sodipodi.sourceforge.net/DTD/sodipodi-0.dtd" class="st0">
	
		<sodipodi:namedview  bordercolor="#666666" borderopacity="1" gridtolerance="10" guidetolerance="10" id="namedview67" inkscape:current-layer="svg2" inkscape:cx="551.37712" inkscape:cy="250" inkscape:pageopacity="0" inkscape:pageshadow="2" inkscape:window-height="1056" inkscape:window-maximized="1" inkscape:window-width="1855" inkscape:window-x="65" inkscape:window-y="24" inkscape:zoom="1.888" objecttolerance="10" pagecolor="#ffffff" showgrid="false">
		</sodipodi:namedview>
</g>
<g id="Layer_3" class="st0">
</g>
<g id="Layer_7" class="st0">
	<g id="_x30_YCD3x.tif" class="st2">
		
			<image style="overflow:visible;" width="166" height="84" id="Layer_0_00000020385633708574998970000008714116870876199098_" xlink:href="A50F915F4C9D17C9.png"  transform="matrix(14.7288 0 0 14.7288 -170.6663 -69.6455)">
		</image>
	</g>
</g>
<g id="Layer_4">
	<g>
		<path class="st3" d="M443.4,1084c0,0-2.1-65.7-8.4-77.7c-31.6,6-140.9,10-159.9,4c-21,21.9-48.4,69.7-48.4,69.7
			s10.5,25.9,18.9,29.9c11.7,1.4,64.1,8.6,91.4,26.2c-0.6-1.9-1-4-1-6.3c8.4-21.9,58.9-21.9,84.1-27.9
			C435,1095.9,443.4,1084,443.4,1084z"/>
		<path d="M725.3,510.4L725.3,510.4c-73.5-41.8-145.1-286.8-145.1-286.8s-25.7-26-69.5-31c-4.2,7-8.4,13.8-12.5,20.2
			c3.7,0.3,7.2,0.5,10.5,0.8c50.5,4,52.6,23.9,63.1,41.8C597,345,674.8,484.4,691.7,514.3c-25.2,55.8-90.4,103.6-119.9,127.5
			c18.9,0,42.1-15.9,67.3-33.9c25.2,21.9,54.7,135.4,48.4,161.3S637,896.7,620.1,912.7c-16.8,15.9-96.8,51.8-178.8,75.7
			c-82,23.9-159.9-2-159.9-2s16.8-19.9,25.2-35.9c-12.6-25.9-52.6-39.8-73.6-23.9c2.1,10,0,19.9-4.2,41.8
			C132.1,918.7,50.1,771.3,29,711.5c40-79.7,69.4-153.4,69.4-153.4s21-15.9,50.5-33.9c29.4,49.8,48.4,69.7,79.9,79.7
			c-42.1-37.8-61-83.7-75.7-139.4c61-45.8,69.4-151.4,77.8-191.2c44.2-43.8,130.4-69.7,130.4-69.7l0,0c0,0,9.5,0.6,24.1,1.5
			c-51.9-13.5-109.6,16-157,49.3c-5.9,4.1-11.1,49.3-17.7,34.3c-8.9,113.7-65.9,145.8-87.2,167.8c16.8,21.9,18.9,47.8,18.9,47.8
			s-40,27.9-65.2,49.8c-12.6,89.6-56.8,119.5-56.8,119.5S18.5,685.6,8,711.5c115.7,233,187.2,252.9,210.3,270.9
			c-16.8,47.8-25.2,51.8-46.3,89.6c-40,33.9-90.4,39.8-119.9,47.8s-16.8,29.9,2.1,35.9c18.9,6,52.6-6,65.2-6
			c12.6,0,18.9,4,37.9,15.9c6.3,10,8.4,35.9,23.1,51.8c16.8,4,27.3-6,33.7-13.9c6.3-8,4.2-21.9,14.7-39.8c18.9-8,65.2,8,77.8,11.9
			c12.6,4,27.3,10,46.3-10c1.6-6.2,0.6-11.7-2.4-16.7c15.1,6.2,39.3,5.3,59.2,2.8c31.5-4,69.4,12,90.4,23.9
			c21,11.9,46.3,31.9,58.9,33.9s21-6,27.3-17.9s-10.5-29.9-10.5-29.9s63.1-4,71.5-11.9c8.4-8,6.3-25.9-14.7-33.9
			s-107.3-12-132.5-25.9c-21-25.9-4.2-103.6-4.2-103.6s69.4-17.9,86.2-25.9c6.3,2,25.2,4,46.3-19.9c21-23.9,79.9-143.4,86.2-177.3
			c-2.1-41.8-37.9-129.5-63.1-165.3C679,584.1,725.3,510.4,725.3,510.4z M319.3,1163.7c-16.8-6-65.2-21.9-77.8-21.9s-31.6,8-31.6,8
			l6.3-17.9l-2.1-12c0,0-21,29.9-12.6,61.7c6.3,17.9-4.2,25.9-4.2,25.9s-12.6,6-27.3-45.8c-16.8-21.9-27.3-27.9-48.4-23.9
			s-46.3,6-56.8,6c-10.5,0-25.2-10,18.9-21.9c44.2-11.9,79.9-19.9,92.6-35.9c12.6-15.9,69.4-95.7,73.6-151.4l0,0.1
			c0,0,12.6-15.9,46.3,17.9C281.4,970.5,212,1078,212,1078s2.1,25.9,10.5,33.9c25.2,8,35.8,13.9,50.5,13.9c14.7,0,61,13.9,63.1,25.9
			C338.2,1163.7,336.1,1169.6,319.3,1163.7z M336.1,1129.8c0,2.3,0.3,4.4,1,6.3c-27.3-17.6-79.7-24.8-91.4-26.2
			c-8.4-4-18.9-29.9-18.9-29.9s27.3-47.8,48.4-69.7c18.9,6,128.3,2,159.9-4c6.3,12,8.4,77.7,8.4,77.7s-8.4,11.9-23.1,17.9
			C395,1107.9,344.5,1107.9,336.1,1129.8z M498.1,1107.9c12.6,6,52.6,11.9,107.3,13.9c52.6,15.9,16.8,21.9,16.8,21.9s-44.2,6-71.5,8
			c21,13.9,29.4,39.8,21,45.8c-8.4,6-56.8-21.9-75.7-37.8c-18.9-15.9-54.7-19.9-86.2-19.9c-35.8,13.9-54.7,2-54.7-6
			s21-13.9,54.7-17.9c33.7-4,42.1-15.9,44.2-29.9c2.1-13.9-6.3-79.7-6.3-79.7l33.6-11.9l0,0C468.7,1090,485.5,1101.9,498.1,1107.9z"
			/>
		<path class="st4" d="M395.3,380.5c-3.1-4-5-9.6-5-15.7c0-12.2,7.5-22.2,16.8-22.2c5,0,9.4,2.8,12.5,7.4c0.3-2.5,0.4-4.9,0.4-7.4
			c0-18.6-8.1-39.3-19.6-39.3s-19.6,20.7-19.6,39.3C380.8,358.3,386.5,375.5,395.3,380.5z"/>
		<path class="st4" d="M534.9,342.6c4.1,0,7.8,2.2,10.6,5.7c0.1-1.9,0.2-3.8,0.2-5.7c0-23.2-9.5-39.3-18.1-39.3
			s-18.1,16.1-18.1,39.3c0,20.2,7.3,35.1,14.8,38.5c-3.2-4.1-5.2-9.9-5.2-16.4C519.1,352.5,526.2,342.6,534.9,342.6z"/>
		<path class="st4" d="M385.5,205.1c-14.6-0.9-24.1-1.5-24.1-1.5l0,0c0,0-86.2,25.9-130.4,69.7c-8.4,39.8-16.8,145.4-77.8,191.2
			c14.7,55.8,33.7,101.6,75.7,139.4c-31.6-10-50.5-29.9-79.9-79.7c-29.4,17.9-50.5,33.9-50.5,33.9S69,631.9,29,711.5
			c21,59.8,103.1,207.1,199.8,256.9c4.2-21.9,6.3-31.9,4.2-41.8c21-15.9,61-2,73.6,23.9c-8.4,15.9-25.2,35.9-25.2,35.9
			s77.8,25.9,159.9,2c82-23.9,162-59.8,178.8-75.7c16.8-15.9,61-117.5,67.3-143.4s-23.1-139.4-48.4-161.3
			c-25.2,17.9-48.4,33.9-67.3,33.9c29.4-23.9,94.7-71.7,119.9-127.5C674.8,484.4,597,345,571.8,255.4
			c-10.5-17.9-12.6-37.8-63.1-41.8c-3.3-0.3-6.8-0.5-10.5-0.8c-20.5,32.2-37.8,55.1-37.8,55.1C438.5,231.2,412.8,212.2,385.5,205.1z
			 M237.2,751.4c0,0-96.8,53.8-145.1,43.8c-16.8-8-42.1-61.7-10.5-115.5s27.3-61.7,31.6-73.7c10.5,2,23.1,0,23.1,0
			s-12.6,8-29.4,45.8c-16.8,37.8-21,95.6-21,107.6s2.1,21.9,27.3,19.9s39.9,2,138.8-69.7l0,0L237.2,751.4z M400.4,293.3
			c16.6,0,29.6,21.7,29.6,49.3c0,27.6-13,49.3-29.6,49.3c-16.6,0-29.6-21.7-29.6-49.3C370.8,314.9,383.8,293.3,400.4,293.3z
			 M527.6,293.3c15.8,0,28.1,21.7,28.1,49.3c0,12.6-2.6,24-6.9,32.6c-1.2,3.1-2.8,5.7-4.8,7.7c-4.6,5.7-10.2,9-16.4,9
			c-15.8,0-28.1-21.7-28.1-49.3C499.5,314.9,511.8,293.3,527.6,293.3z M575.9,446.6L575.9,446.6c-16.8,43.8-67.3,113.5-67.3,113.5
			s-101-87.6-128.3-127.5C462.3,406.8,575.9,446.6,575.9,446.6z"/>
		<path class="st4" d="M273,1125.8c-14.7,0-25.2-6-50.5-13.9c-8.4-8-10.5-33.9-10.5-33.9s69.4-107.6,84.1-125.5
			c-33.7-33.9-46.3-17.9-46.3-17.9l0-0.1c-4.2,55.8-61,135.5-73.6,151.4c-12.6,15.9-48.4,23.9-92.6,35.9
			c-44.2,11.9-29.4,21.9-18.9,21.9c10.5,0,35.8-2,56.8-6s31.6,2,48.4,23.9c14.7,51.8,27.3,45.8,27.3,45.8s10.5-8,4.2-25.9
			c-8.4-31.9,12.6-61.7,12.6-61.7l2.1,12l-6.3,17.9c0,0,18.9-8,31.6-8s61,15.9,77.8,21.9c16.8,6,18.9,0,16.8-12
			C334,1139.8,287.7,1125.8,273,1125.8z"/>
		<path class="st4" d="M481.3,994.4L481.3,994.4l-33.7,12c0,0,8.4,65.7,6.3,79.7c-2.1,13.9-10.5,25.9-44.2,29.9
			c-33.7,4-54.7,10-54.7,17.9s18.9,19.9,54.7,6c31.6,0,67.3,4,86.2,19.9c18.9,15.9,67.3,43.8,75.7,37.8c8.4-6,0-31.9-21-45.8
			c27.3-2,71.5-8,71.5-8s35.8-6-16.8-21.9c-54.7-2-94.7-8-107.3-13.9C485.5,1101.9,468.7,1090,481.3,994.4z"/>
		<path d="M113.1,779.3c-25.2,2-27.3-8-27.3-19.9s4.2-69.7,21-107.6c16.8-37.8,29.4-45.8,29.4-45.8s-12.6,2-23.1,0
			c-4.2,11.9,0,19.9-31.6,73.7s-6.3,107.6,10.5,115.5c48.4,10,145.1-43.8,145.1-43.8l14.7-41.8l0,0
			C153.1,781.3,138.4,777.3,113.1,779.3z"/>
		<path d="M380.3,432.7c27.3,39.8,128.3,127.5,128.3,127.5s50.5-69.7,67.3-113.5l0,0C575.9,446.6,462.3,406.8,380.3,432.7z
			 M567.2,454.6C567.2,454.6,567.2,454.6,567.2,454.6L567.2,454.6C567.2,454.6,567.2,454.6,567.2,454.6
			c-14.7,31.9-39.6,67.7-58.6,83.7c-21-8-75.7-69.7-88.3-87.6C533.7,436.7,567.1,454.5,567.2,454.6z"/>
		<polygon class="st4" points="567.2,454.6 567.2,454.6 567.2,454.6 		"/>
		<path class="st4" d="M508.6,538.3c18.9-15.9,43.8-51.8,58.6-83.7c-0.1-0.1-33.5-17.9-146.9-4C432.9,468.5,487.6,530.3,508.6,538.3
			z"/>
		<path d="M228.5,254.4c47.4-33.3,105.1-62.8,157-49.3c27.3,7.1,53,26.1,74.8,62.7c0,0,17.3-22.9,37.8-55.1
			c4.1-6.4,8.3-13.2,12.5-20.2c48-80,97.7-193.5-16.1-180.9c-43.6,4.8-145.2,79.2-145.2,79.2S305.2,7,232.7,179.2
			c0,0-36.9-9.3-30.9,52.4c3.4,34.3,6.3,51,9.1,57.2C217.4,303.7,222.6,258.6,228.5,254.4z"/>
		<path d="M400.4,391.9c16.6,0,29.6-21.7,29.6-49.3c0-27.6-13-49.3-29.6-49.3c-16.6,0-29.6,21.7-29.6,49.3
			C370.8,370.2,383.8,391.9,400.4,391.9z M400.4,303.3c11.6,0,19.6,20.7,19.6,39.3c0,2.4-0.1,4.9-0.4,7.4c2.7,3.9,4.3,9.1,4.3,14.8
			c0,12.2-7.5,22.2-16.8,22.2c-4.6,0-8.8-2.4-11.8-6.4c-8.8-5-14.5-22.2-14.5-37.9C380.8,324,388.8,303.3,400.4,303.3z"/>
		<path d="M527.6,391.9c6.2,0,11.8-3.3,16.4-9c-2.6,2.5-5.7,4-9.1,4c-4.1,0-7.8-2.2-10.6-5.8c-7.5-3.4-14.8-18.3-14.8-38.5
			c0-23.2,9.5-39.3,18.1-39.3s18.1,16.1,18.1,39.3c0,2-0.1,3.9-0.2,5.7c3.2,4.1,5.2,9.9,5.2,16.4c0,3.8-0.7,7.3-1.9,10.4
			c4.3-8.6,6.9-20,6.9-32.6c0-27.6-12.3-49.3-28.1-49.3s-28.1,21.7-28.1,49.3C499.5,370.2,511.8,391.9,527.6,391.9z"/>
		<path d="M407.1,342.6c-9.3,0-16.8,9.9-16.8,22.2c0,6.2,1.9,11.7,5,15.7c3,4,7.2,6.4,11.8,6.4c9.3,0,16.8-9.9,16.8-22.2
			c0-5.7-1.6-10.9-4.3-14.8C416.6,345.4,412.1,342.6,407.1,342.6z"/>
		<path d="M545.5,348.3c-2.8-3.5-6.5-5.7-10.6-5.7c-8.7,0-15.8,9.9-15.8,22.2c0,6.5,2,12.3,5.2,16.4c2.8,3.6,6.5,5.8,10.6,5.8
			c3.4,0,6.5-1.5,9.1-4c2-2,3.7-4.6,4.8-7.7c1.2-3.1,1.9-6.7,1.9-10.4C550.7,358.2,548.7,352.3,545.5,348.3z"/>
	</g>
</g>
<g id="Layer_5" class="st0">
	<text transform="matrix(1.1966 0 -0.2079 0.9781 762.6653 619.6888)" class="st2"><tspan x="0" y="0" class="st5 st6 st7 st8">remember</tspan><tspan x="0" y="206.5" class="st5 st6 st7 st8">the eggs</tspan></text>
</g>
<g id="Layer_5_copy">
	<path class="st9" d="M877,672.8l-6.3,31.6c-0.8,3.7-3.6,7.1-8.3,10.1c-4.8,3.1-9.2,4.6-13.2,4.6c-5.8,0-8.6-3.7-8.5-11
		c0.1-1.6,2.3-16.6,6.6-45c4.3-28.3,5.6-50.6,4.1-66.7c-0.6-7.8-0.7-12.4-0.4-13.8c1.4-6.8,7.2-10.1,17.2-10.1c4.3,0,7.3,1.3,9.3,4
		c1.9,2.7,2.9,5.4,3,8.1c0,2.8-0.2,6.5-0.7,11.2c-0.5,4.7-0.8,7.7-0.8,8.9c7.4-10.2,16.9-17.9,28.5-23c11.6-5.1,23.6-7.7,36.2-7.7
		c20.5,0,29.9,4.3,28,12.9c-0.9,4.3-3.5,7.7-7.6,10.3c-4.2,2.6-8.6,3.8-13.4,3.8c-21.3,0-37.5,5.5-48.6,16.6
		C890.7,628.6,882.5,647,877,672.8z"/>
	<path class="st9" d="M1038.8,575.6c13.3,0,25.2,3.2,35.9,9.5c10.7,6.3,15,14.2,13,23.5c-2,9.3-8.8,18.3-20.4,27
		c-11.6,8.7-25.7,14-42.4,15.8c-7.2,0.8-17.8,1.2-31.8,1.2c-0.9,17.4,2,28.8,8.8,34.4c2,2.3,5.2,3.4,9.4,3.4
		c15.5,0,29.4-4,41.6-12.1c12.2-8.1,20.6-12.1,25.1-12.1c2,0,4.7,1.5,8,4.6c3.3,3.1,4.7,5.9,4.2,8.6c-1.1,5.3-10.6,13-28.5,23
		c-8,4.7-17.3,8.6-27.8,11.8c-10.6,3.2-20.1,4.8-28.6,4.8c-21.8,0-35.4-11.5-40.7-34.4c-3.5-14.1-3.5-29.7,0.2-46.6
		c3.6-17,11.6-31.6,24-43.9C1001.1,581.7,1017.8,575.6,1038.8,575.6z M1036.2,596.7c-9.5,0-18.6,4.4-27.2,13.2
		c-3.2,3.1-7,10-11.6,20.9c35,0,54-7.1,57-21.2C1056.3,601,1050.2,596.7,1036.2,596.7z"/>
	<path class="st9" d="M1110.3,717.9c-6.5,0-9.8-3-9.7-8.9c8.8-41.3,13.6-78.1,14.5-110.5c0.9-4.1,3.5-7.8,7.8-11
		c4.3-3.3,8.8-4.9,13.4-4.9c4.6,0,7.6,2.1,9,6.4c11.4-10,24.8-15,40.4-15c19.8,0,33.4,7.8,40.8,23.3c15.6-14.7,33.8-22.1,54.4-22.1
		c20.6,0,34.7,6.7,42.1,20.2c5,8.4,7.4,19.4,7.2,33.1c-0.2,13.7-2.9,33.1-8.3,58.3c-2.1,9.8-5,17.4-8.6,22.9
		c-3.7,5.4-9.5,8.1-17.5,8.1c-6.5,0-9-3.4-7.6-10.1l9.3-38.4c9.8-46,0-69-29.2-69c-9.3,0-16.3,2.7-21.2,8c-5.6,6.3-9.5,13-11.7,19.9
		c-3.6,12.3-6.5,23.4-8.6,33.4l-9.5,44.5c-0.7,3.3-3.3,6-7.8,8.3c-4.5,2.3-8.9,3.4-13.1,3.4c-5.5,0-8.4-3-8.6-8.9l14.6-63.5
		c4.8-22.5,3.1-36.5-5-42c-3.9-2.7-10.5-4-19.6-4c-9.1,0-16.5,2.8-22,8.3c-5.6,5.5-9.6,14.4-12.2,26.7l-9.9,57.1
		C1129.9,709.1,1122.1,717.9,1110.3,717.9z"/>
	<path class="st9" d="M1420,575.6c13.3,0,25.2,3.2,35.9,9.5c10.7,6.3,15,14.2,13,23.5c-2,9.3-8.8,18.3-20.4,27
		c-11.6,8.7-25.7,14-42.4,15.8c-7.2,0.8-17.8,1.2-31.8,1.2c-0.9,17.4,2,28.8,8.8,34.4c2,2.3,5.2,3.4,9.4,3.4
		c15.5,0,29.4-4,41.6-12.1c12.2-8.1,20.6-12.1,25.1-12.1c2,0,4.7,1.5,8,4.6c3.3,3.1,4.7,5.9,4.2,8.6c-1.1,5.3-10.6,13-28.5,23
		c-8,4.7-17.3,8.6-27.8,11.8c-10.6,3.2-20.1,4.8-28.6,4.8c-21.8,0-35.4-11.5-40.7-34.4c-3.5-14.1-3.5-29.7,0.2-46.6
		c3.6-17,11.6-31.6,24-43.9C1382.3,581.7,1399,575.6,1420,575.6z M1417.4,596.7c-9.5,0-18.6,4.4-27.2,13.2c-3.2,3.1-7,10-11.6,20.9
		c35,0,54-7.1,57-21.2C1437.5,601,1431.4,596.7,1417.4,596.7z"/>
	<path class="st9" d="M1491.6,717.9c-6.5,0-9.8-3-9.7-8.9c8.8-41.3,13.6-78.1,14.5-110.5c0.9-4.1,3.5-7.8,7.8-11
		c4.3-3.3,8.8-4.9,13.4-4.9c4.6,0,7.6,2.1,9,6.4c11.4-10,24.8-15,40.4-15c19.8,0,33.4,7.8,40.8,23.3c15.6-14.7,33.8-22.1,54.4-22.1
		c20.6,0,34.7,6.7,42.1,20.2c5,8.4,7.4,19.4,7.2,33.1c-0.2,13.7-2.9,33.1-8.3,58.3c-2.1,9.8-5,17.4-8.6,22.9
		c-3.7,5.4-9.5,8.1-17.5,8.1c-6.5,0-9-3.4-7.6-10.1l9.3-38.4c9.8-46,0-69-29.2-69c-9.3,0-16.3,2.7-21.2,8c-5.6,6.3-9.5,13-11.7,19.9
		c-3.6,12.3-6.5,23.4-8.6,33.4l-9.5,44.5c-0.7,3.3-3.3,6-7.8,8.3c-4.5,2.3-8.9,3.4-13.1,3.4c-5.5,0-8.4-3-8.6-8.9l14.6-63.5
		c4.8-22.5,3.1-36.5-5-42c-3.9-2.7-10.5-4-19.6-4c-9.1,0-16.5,2.8-22,8.3c-5.6,5.5-9.6,14.4-12.2,26.7l-9.9,57.1
		C1511.1,709.1,1503.3,717.9,1491.6,717.9z"/>
	<path class="st9" d="M1760.5,510.2c1.7-8.2,8.9-12.3,21.4-12.3c5.8,0,8.5,2.9,8.3,8.6l-9.8,46c-1.8,8.6-3.5,17.2-5.1,25.8
		c5.3-1.2,11.8-1.8,19.5-1.8c24.3,0,41.6,6.6,52.1,19.9c10.4,13.3,13.5,30,9.3,50c-4.3,20-15.7,37-34.3,50.8
		c-18.6,13.8-40.1,20.7-64.6,20.7c-24.5,0-35.6-5.7-33.2-17c2.4-11.4,7.9-40.2,16.3-86.5C1748.9,568,1755.5,533.3,1760.5,510.2z
		 M1815.3,609c-7.8-5.7-16.7-8.6-26.7-8.6c-5.5,0-11.3,0.8-17.4,2.5c-2.1,16.8-7.6,46.5-16.7,89.3c4,1.2,8.2,1.8,12.7,1.8
		c9.8,0,20.1-3,31.2-8.9c16.2-8.2,26.2-20.7,29.8-37.6C1831.7,630.6,1827.4,617.8,1815.3,609z"/>
	<path class="st9" d="M1945.9,575.6c13.3,0,25.2,3.2,35.9,9.5c10.7,6.3,15,14.2,13,23.5c-2,9.3-8.8,18.3-20.4,27
		c-11.6,8.7-25.7,14-42.4,15.8c-7.2,0.8-17.8,1.2-31.8,1.2c-0.9,17.4,2,28.8,8.8,34.4c2,2.3,5.2,3.4,9.4,3.4
		c15.5,0,29.4-4,41.6-12.1c12.2-8.1,20.6-12.1,25.1-12.1c2,0,4.7,1.5,8,4.6c3.3,3.1,4.7,5.9,4.2,8.6c-1.1,5.3-10.6,13-28.5,23
		c-8,4.7-17.3,8.6-27.8,11.8c-10.6,3.2-20.1,4.8-28.6,4.8c-21.8,0-35.4-11.5-40.7-34.4c-3.5-14.1-3.5-29.7,0.2-46.6
		c3.6-17,11.6-31.6,24-43.9C1908.2,581.7,1924.9,575.6,1945.9,575.6z M1943.3,596.7c-9.5,0-18.6,4.4-27.2,13.2
		c-3.2,3.1-7,10-11.6,20.9c35,0,54-7.1,57-21.2C1963.4,601,1957.3,596.7,1943.3,596.7z"/>
	<path class="st9" d="M2046.3,672.8l-6.3,31.6c-0.8,3.7-3.6,7.1-8.3,10.1c-4.8,3.1-9.2,4.6-13.2,4.6c-5.8,0-8.6-3.7-8.5-11
		c0.1-1.6,2.3-16.6,6.6-45c4.3-28.3,5.6-50.6,4.1-66.7c-0.6-7.8-0.7-12.4-0.4-13.8c1.4-6.8,7.2-10.1,17.2-10.1c4.3,0,7.3,1.3,9.3,4
		c1.9,2.7,2.9,5.4,3,8.1c0,2.8-0.2,6.5-0.7,11.2c-0.5,4.7-0.8,7.7-0.8,8.9c7.4-10.2,16.9-17.9,28.5-23c11.6-5.1,23.6-7.7,36.2-7.7
		c20.5,0,29.9,4.3,28,12.9c-0.9,4.3-3.5,7.7-7.6,10.3c-4.2,2.6-8.6,3.8-13.4,3.8c-21.3,0-37.5,5.5-48.6,16.6
		C2060.1,628.6,2051.8,647,2046.3,672.8z"/>
	<path class="st9" d="M801.4,802.2l18.7,0.3c4.3,0,6.6-0.1,7.2-0.3l13.4-51.6c1-3.5,3.7-6.4,8.3-8.9c4.5-2.5,8.5-3.7,12-3.7
		c3.5,0,6.1,0.9,7.9,2.8c1.7,1.8,2.1,4.7,1,8.6c-1.1,3.9-5.7,13.9-13.9,52.5l44.2-1.2c7.5,0,10.5,3.6,9,10.7
		c-1.1,5.3-3.9,9.3-8.4,12c-4.4,2.7-8.9,4.1-13.3,4.3c-4.4,0.2-8.8,0.3-13,0.3l-22.8-0.3c-1.8,8.4-4.2,25-7.4,49.7
		c-3.1,24.8-4.9,40.8-5.1,48c-0.3,7.3-1,12-2.3,14.1c-1.2,2.1-2.9,3.6-5.1,4.4c-3.5,1.2-8,1.8-13.5,1.8c-5.5,0-8.2-2.5-8.2-7.4
		c0.7-26.8,5.1-63.6,13.3-110.5c-2.3,0.2-11,0.3-26,0.3s-21.8-3.6-20.2-10.7C779.3,807.3,787.4,802.2,801.4,802.2z"/>
	<path class="st9" d="M951.4,846.1L939,918.5c-1.9,9-3.5,14.2-4.8,15.6c-1.3,3.7-3.3,6.5-6.1,8.6c-2.8,2-7.6,3.1-14.4,3.1
		c-3.3,0-5.5-1.7-6.8-5.1c-1.3-3.4-1.6-7.2-0.9-11.5c5.9-36,10.8-69.8,14.6-101.4c3.8-31.6,8.7-61,14.4-88.2
		c0.9-4.3,3.4-7.7,7.4-10.1c4-2.5,8.4-3.7,13.2-3.7c7,0,10.2,4.9,9.4,14.7c-0.7,9.8-2.4,22.1-5.2,36.8c-2.8,14.7-4.6,25.5-5.5,32.2
		c13.6-5.3,26.7-8,39.2-8c29,0,45.2,10.4,48.5,31.3c2,11.9,1,27.1-3,45.7c-1.3,6.1-4.1,15.8-8.2,29c-4.2,13.2-6.8,21.7-7.9,25.6
		c-1.1,3.9-3.8,6.9-8.1,9.1c-4.3,2.1-8.8,3.2-13.3,3.2c-7,0-9.9-3.1-8.6-9.2l14-53.4c1-4.5,2.3-12,4-22.4
		c1.7-10.4,0.9-18.7-2.4-24.9c-3.3-6.1-10.7-9.2-22.3-9.2C965.9,826.4,954.2,833,951.4,846.1z"/>
	<path class="st9" d="M1131.1,803.4c13.3,0,25.2,3.2,35.9,9.5c10.7,6.3,15,14.2,13,23.5c-2,9.3-8.8,18.3-20.4,27
		c-11.6,8.7-25.7,14-42.4,15.8c-7.2,0.8-17.8,1.2-31.8,1.2c-0.9,17.4,2,28.8,8.8,34.4c2,2.3,5.2,3.4,9.4,3.4
		c15.5,0,29.4-4,41.6-12.1c12.2-8.1,20.6-12.1,25.1-12.1c2,0,4.7,1.5,8,4.6c3.3,3.1,4.7,5.9,4.2,8.6c-1.1,5.3-10.6,13-28.5,23
		c-8,4.7-17.3,8.6-27.8,11.8c-10.6,3.2-20.1,4.8-28.6,4.8c-21.8,0-35.4-11.5-40.7-34.4c-3.5-14.1-3.5-29.7,0.2-46.6
		c3.6-17,11.6-31.6,24-43.9C1093.4,809.6,1110.1,803.4,1131.1,803.4z M1128.5,824.6c-9.5,0-18.6,4.4-27.2,13.2
		c-3.2,3.1-7,10-11.6,20.9c35,0,54-7.1,57-21.2C1148.6,828.9,1142.5,824.6,1128.5,824.6z"/>
	<path class="st9" d="M1351.3,803.4c13.3,0,25.2,3.2,35.9,9.5c10.7,6.3,15,14.2,13,23.5c-2,9.3-8.8,18.3-20.4,27
		c-11.6,8.7-25.7,14-42.4,15.8c-7.2,0.8-17.8,1.2-31.8,1.2c-0.9,17.4,2,28.8,8.8,34.4c2,2.3,5.2,3.4,9.4,3.4
		c15.5,0,29.4-4,41.6-12.1c12.2-8.1,20.6-12.1,25.1-12.1c2,0,4.7,1.5,8,4.6c3.3,3.1,4.7,5.9,4.2,8.6c-1.1,5.3-10.6,13-28.5,23
		c-8,4.7-17.3,8.6-27.8,11.8c-10.6,3.2-20.1,4.8-28.6,4.8c-21.8,0-35.4-11.5-40.7-34.4c-3.5-14.1-3.5-29.7,0.2-46.6
		c3.6-17,11.6-31.6,24-43.9C1313.6,809.6,1330.3,803.4,1351.3,803.4z M1348.7,824.6c-9.5,0-18.6,4.4-27.2,13.2
		c-3.2,3.1-7,10-11.6,20.9c35,0,54-7.1,57-21.2C1368.8,828.9,1362.7,824.6,1348.7,824.6z"/>
	<path class="st9" d="M1511.3,932.9c-10.8,8.6-23.1,12.9-36.9,12.9c-13.8,0-24.9-3.5-33.4-10.4c-18.2-13.3-24.4-33.6-18.6-61.1
		c4.6-21.5,15.5-38.7,32.8-51.7c17.3-13,36.5-19.5,57.8-19.5c21.3,0,34.5,5.9,39.8,17.8c4.5,10.4,4.6,26.2,0.1,47.3l-6.1,25.2
		c-2.5,11.9-5.3,28.3-8.4,49.2c-3.1,21-5.8,36.8-8,47.4c-3.7,17.6-11.8,30.5-24.2,38.8c-12.4,8.3-29.5,12.4-51.2,12.4
		c-13,0-25.8-2.3-38.4-6.7c-12.6-4.5-18.2-9.7-16.9-15.6c0.9-4.3,3-7.6,6.4-9.8c3.4-2.3,6.9-3.4,10.7-3.4c3.8,0,11.7,2.2,23.9,6.8
		c12.2,4.5,21.1,6.7,26.9,6.7c18,0,29.6-12.1,34.7-36.2C1507.3,958.8,1510.4,942.1,1511.3,932.9z M1524.7,868
		c3.2-14.8,2.7-25.3-1.4-31.3c-4.1-6-11.9-9.1-23.4-9.1c-11.5,0-21.7,4.3-30.5,12.9c-8.8,8.6-14.7,19.5-17.5,32.7
		c-2.8,13.2-1.7,23.7,3.3,31.4c5,7.8,14.3,11.7,28.1,11.7c13.8,0,23.7-4.8,29.7-14.4C1517.7,894.1,1521.6,882.8,1524.7,868z"/>
	<path class="st9" d="M1662.3,932.9c-10.8,8.6-23.1,12.9-36.9,12.9c-13.8,0-24.9-3.5-33.4-10.4c-18.2-13.3-24.4-33.6-18.6-61.1
		c4.6-21.5,15.5-38.7,32.8-51.7c17.3-13,36.5-19.5,57.8-19.5c21.3,0,34.5,5.9,39.8,17.8c4.5,10.4,4.6,26.2,0.1,47.3l-6.1,25.2
		c-2.5,11.9-5.3,28.3-8.4,49.2c-3.1,21-5.8,36.8-8,47.4c-3.7,17.6-11.8,30.5-24.2,38.8c-12.4,8.3-29.5,12.4-51.2,12.4
		c-13,0-25.8-2.3-38.4-6.7c-12.6-4.5-18.2-9.7-16.9-15.6c0.9-4.3,3-7.6,6.4-9.8c3.4-2.3,6.9-3.4,10.7-3.4c3.8,0,11.7,2.2,23.9,6.8
		c12.2,4.5,21.1,6.7,26.9,6.7c18,0,29.6-12.1,34.7-36.2C1658.3,958.8,1661.3,942.1,1662.3,932.9z M1675.7,868
		c3.2-14.8,2.7-25.3-1.4-31.3c-4.1-6-11.9-9.1-23.4-9.1c-11.5,0-21.7,4.3-30.5,12.9c-8.8,8.6-14.7,19.5-17.5,32.7
		s-1.7,23.7,3.3,31.4c5,7.8,14.3,11.7,28.1,11.7c13.8,0,23.7-4.8,29.7-14.4C1668.6,894.1,1672.5,882.8,1675.7,868z"/>
	<path class="st9" d="M1754,812.3c12-7.2,25-10.7,38.9-10.7c13.9,0,26.8,2,38.7,6.1c11.9,4.1,17.1,9.5,15.7,16.3
		c-0.7,3.5-3,6.2-6.6,8.3c-3.7,2-6.7,3.1-9.1,3.1c-2.4,0-4.2,0-5.6-0.2c-1.4-0.1-6-2-13.8-5.7c-7.9-3.7-15.4-5.5-22.7-5.5
		c-7.3,0-13.8,1.5-19.5,4.4c-5.8,3-9.3,7.3-10.5,13c-1.2,5.7,0.8,10.2,6,13.5c5.2,3.3,14.9,6.1,29.2,8.4c14.3,2.4,24.9,5.7,31.8,10
		c7,4.3,9.2,12.3,6.7,23.9c-3.6,17-11.6,29-24,36.1c-12.4,7.1-26.3,10.6-41.8,10.6c-15.5,0-28.3-1.7-38.5-5.2
		c-10.1-3.5-14.5-8.7-13-15.6c1.7-8,7.4-12,17.2-12c2.5,0,7.7,1.4,15.6,4.3c7.9,2.9,16,4.3,24.4,4.3c8.4,0,15.2-2.2,20.5-6.6
		c5.3-4.4,8.6-9.5,9.8-15.2c1.2-5.7-0.8-9.9-6-12.4c-5.2-2.6-13.5-4.6-24.9-6.3c-11.4-1.6-19.7-3.4-24.8-5.2
		c-14-4.9-19.2-15.8-15.5-32.8C1734.7,829.1,1742,819.5,1754,812.3z"/>
</g>
</svg>
